<svg height="512pt" viewBox="-19 0 512 512" width="512pt" xmlns="http://www.w3.org/2000/svg"><path d="m109.449219 163.238281c-12.390625-12.320312-32.550781-12.320312-44.941407 0-12.390624 12.316407-12.390624 32.359375 0 44.679688l3.121094 3.105469h75.910156v-13.890626zm0 0" fill="#ef5050"/><path d="m271.222656 163.238281c-12.390625-12.320312-32.550781-12.320312-44.941406 0l-34.089844 33.890625v13.894532h75.910156l3.121094-3.105469c12.390625-12.320313 12.390625-32.363281 0-44.679688zm0 0" fill="#ef5050"/><path d="m328.230469 271.148438c0 2.75-2.25 5-5 5h-310.730469c-2.75 0-5-2.25-5-5v-55.125c0-2.75 2.25-5 5-5h310.730469c2.75 0 5 2.25 5 5zm0 0" fill="#ffc502"/><path d="m192.191406 211.023438v-29.925782c0-2.75-2.25-5-5-5h-38.652344c-2.75 0-5 2.25-5 5v29.925782zm0 0" fill="#c0272d"/><path d="m286.863281 474.285156c-2.730469.339844-4.683593-1.617187-4.339843-4.34375l4.742187-37.671875c.34375-2.730469-1.15625-6.339843-3.332031-8.019531l-30.175782-23.328125c-2.175781-1.683594-2.175781-4.4375 0-6.117187l30.175782-23.332032c2.175781-1.679687 3.675781-5.289062 3.332031-8.015625l-4.742187-37.675781c-.34375-2.730469 1.609374-4.683594 4.339843-4.34375l20.90625 2.601562v-47.890624h-279.808593v223.113281c0 2.75 2.25 5 5 5h269.808593c2.75 0 5-2.25 5-5v-27.578125zm0 0" fill="#fcdb67"/><path d="m109.867188 380.640625c0 2.75-2.25 5-5 5h-43.585938c-2.75 0-5-2.25-5-5v-64.792969c0-2.75 2.25-5 5-5h43.585938c2.75 0 5 2.25 5 5zm0 0" fill="#fff"/><path d="m109.867188 380.640625c0 2.75-2.25 5-5 5h-43.585938c-2.75 0-5-2.25-5-5v-64.792969c0-2.75 2.25-5 5-5h43.585938c2.75 0 5 2.25 5 5zm0 0" fill="#0291c9"/><path d="m140.476562 276.148438h54.777344v228.113281h-54.777344zm0 0" fill="#c0272d"/><path d="m132.171875 211.023438h71.386719v65.125h-71.386719zm0 0" fill="#ef5050"/><path d="m356.308594 292.84375c1.695312-2.164062 4.46875-2.164062 6.160156 0l23.457031 29.992188c1.695313 2.164062 5.316407 3.660156 8.042969 3.320312l37.949219-4.71875c2.730469-.339844 4.683593 1.613281 4.339843 4.34375l-4.742187 37.671875c-.339844 2.730469 1.15625 6.335937 3.332031 8.019531l30.175782 23.328125c2.175781 1.683594 2.175781 4.4375 0 6.117188l-30.175782 23.328125c-2.175781 1.683594-3.671875 5.292968-3.332031 8.019531l4.742187 37.675781c.34375 2.726563-1.609374 4.683594-4.339843 4.34375l-37.949219-4.71875c-2.726562-.339844-6.347656 1.15625-8.042969 3.320313l-23.457031 29.988281c-1.691406 2.164062-4.464844 2.164062-6.160156 0l-23.453125-29.988281c-1.695313-2.164063-5.3125-3.660157-8.042969-3.320313l-37.949219 4.71875c-2.730469.339844-4.683593-1.617187-4.339843-4.34375l4.742187-37.675781c.34375-2.726563-1.15625-6.335937-3.332031-8.015625l-30.175782-23.332031c-2.175781-1.679688-2.175781-4.433594 0-6.113281l30.175782-23.332032c2.175781-1.679687 3.675781-5.289062 3.332031-8.019531l-4.742187-37.671875c-.34375-2.730469 1.609374-4.683594 4.339843-4.347656l37.949219 4.722656c2.730469.339844 6.347656-1.15625 8.042969-3.320312zm0 0" fill="#d5e962"/><path d="m407.371094 419.792969c0 10.097656-6.644532 18.277343-14.839844 18.277343-8.191406 0-14.832031-8.183593-14.832031-18.277343s6.640625-18.273438 14.832031-18.273438c8.195312 0 14.839844 8.179688 14.839844 18.273438zm0 0" fill="#368c0e"/><path d="m341.082031 375.929688c0 10.09375-6.640625 18.277343-14.835937 18.277343-8.195313 0-14.835938-8.183593-14.835938-18.277343 0-10.097657 6.640625-18.28125 14.835938-18.28125 8.195312 0 14.835937 8.183593 14.835937 18.28125zm0 0" fill="#368c0e"/><g fill="#f7931e"><path d="m199.875 118.386719c-1.394531 0-2.796875-.332031-4.078125-1.007813l-26.25-13.796875-26.246094 13.796875c-1.28125.675782-2.683593 1.007813-4.078125 1.007813-1.820312 0-3.628906-.5625-5.160156-1.675781-2.699219-1.960938-4.054688-5.289063-3.488281-8.578126l5.011719-29.226562-21.234376-20.699219c-2.390624-2.332031-3.25-5.816406-2.21875-8.992187 1.03125-3.175782 3.777344-5.488282 7.078126-5.972656l29.347656-4.261719 13.121094-26.589844c1.480468-2.996094 4.527343-4.890625 7.867187-4.890625s6.390625 1.894531 7.867187 4.890625l13.121094 26.589844 29.34375 4.261719c3.304688.484374 6.050782 2.796874 7.082032 5.972656 1.03125 3.175781.171874 6.660156-2.21875 8.992187l-21.234376 20.699219 5.011719 29.226562c.566407 3.289063-.789062 6.617188-3.488281 8.578126-1.523438 1.109374-3.335938 1.675781-5.15625 1.675781zm0 0"/><path d="m76.816406 135.683594c-1.082031 0-2.164062-.257813-3.15625-.78125l-20.277344-10.660156-20.28125 10.660156c-.992187.523437-2.074218.78125-3.15625.78125-1.40625 0-2.800781-.4375-3.984374-1.296875-2.085938-1.515625-3.132813-4.085938-2.695313-6.628907l3.875-22.582031-16.410156-15.992187c-1.847657-1.804688-2.511719-4.496094-1.714844-6.949219s2.921875-4.242187 5.472656-4.613281l22.675781-3.292969 10.140626-20.550781c1.140624-2.3125 3.496093-3.777344 6.078124-3.777344 2.578126 0 4.933594 1.464844 6.074219 3.777344l10.144531 20.550781 22.671876 3.292969c2.550781.371094 4.675781 2.160156 5.472656 4.613281s.132812 5.144531-1.714844 6.949219l-16.40625 15.992187 3.871094 22.582031c.4375 2.542969-.609375 5.113282-2.695313 6.628907-1.183593.859375-2.578125 1.296875-3.984375 1.296875zm0 0"/><path d="m310.816406 135.683594c-1.082031 0-2.164062-.257813-3.15625-.78125l-20.277344-10.660156-20.28125 10.660156c-.992187.523437-2.074218.78125-3.152343.78125-1.40625 0-2.804688-.4375-3.984375-1.296875-2.085938-1.515625-3.132813-4.085938-2.695313-6.628907l3.871094-22.582031-16.40625-15.992187c-1.847656-1.800782-2.511719-4.496094-1.714844-6.949219s2.917969-4.242187 5.46875-4.613281l22.675781-3.292969 10.140626-20.546875c1.144531-2.3125 3.5-3.78125 6.078124-3.78125 2.582032 0 4.9375 1.464844 6.078126 3.78125l10.140624 20.546875 22.675782 3.292969c2.554687.371094 4.675781 2.160156 5.472656 4.613281s.132812 5.148437-1.714844 6.949219l-16.40625 15.992187 3.871094 22.582031c.4375 2.542969-.609375 5.113282-2.695312 6.628907-1.1875.859375-2.585938 1.296875-3.988282 1.296875zm0 0"/></g><path d="m469.609375 388.871094-30.097656-23.273438c-.230469-.269531-.511719-.945312-.542969-1.300781l4.730469-37.582031c.453125-3.613282-.695313-7.09375-3.152344-9.554688-2.457031-2.460937-5.941406-3.613281-9.554687-3.164062l-37.859376 4.707031c-.367187-.027344-1.074218-.320313-1.355468-.5625l-23.398438-29.917969c-2.238281-2.859375-5.515625-4.5-8.988281-4.5s-6.75 1.640625-8.984375 4.503906l-23.402344 29.917969c-.28125.238281-.984375.53125-1.355468.558594l-10.378907-1.292969v-33.761718h7.960938c6.894531 0 12.5-5.605469 12.5-12.5v-55.125c0-6.894532-5.605469-12.5-12.5-12.5h-39.585938c2.851563-5.480469 4.371094-11.59375 4.371094-17.945313 0-10.460937-4.085937-20.285156-11.503906-27.660156-7.410157-7.363281-17.265625-11.417969-27.757813-11.417969-10.496094 0-20.351562 4.054688-27.757812 11.417969l-21.457032 21.332031c-.898437-6.015625-6.085937-10.652344-12.347656-10.652344h-38.652344c-6.261718 0-11.449218 4.636719-12.347656 10.652344l-21.453125-21.332031c-7.410156-7.363281-17.265625-11.417969-27.761719-11.417969-10.492187 0-20.351562 4.054688-27.757812 11.417969-7.417969 7.375-11.503906 17.199219-11.503906 27.660156 0 6.351563 1.519531 12.464844 4.371094 17.945313h-39.585938c-6.894531 0-12.5 5.605468-12.5 12.5v55.125c0 6.894531 5.605469 12.5 12.5 12.5h7.960938v215.613281c0 6.890625 5.605468 12.5 12.5 12.5h269.808593c6.890625 0 12.5-5.609375 12.5-12.5v-20.953125l10.375-1.289063c.371094.027344 1.074219.320313 1.355469.558594l23.402344 29.917969c2.238281 2.863281 5.515625 4.503906 8.984375 4.503906 3.472656 0 6.75-1.640625 8.988281-4.503906l21.023438-26.875c2.550781-3.261719 1.976562-7.976563-1.285157-10.527344-3.265625-2.554688-7.980469-1.976562-10.527343 1.285156l-18.199219 23.261719-20.625-26.371094c-3.300781-4.222656-9.5625-6.804687-14.878907-6.144531l-33.339843 4.144531 4.160156-33.066406c.671875-5.339844-1.933594-11.597656-6.183594-14.890625l-26.457031-20.453125 26.453125-20.453125c4.257813-3.289062 6.859375-9.550781 6.1875-14.890625l-4.160156-33.0625 33.339843 4.144531c5.316407.660156 11.578126-1.921875 14.875-6.140625l20.628907-26.375 20.632812 26.375c3.300781 4.21875 9.554688 6.800781 14.875 6.140625l33.339844-4.144531-4.160156 33.066406c-.667969 5.335938 1.933593 11.597657 6.1875 14.886719l26.453125 20.453125-26.453125 20.457031c-4.253907 3.289063-6.855469 9.546875-6.1875 14.886719l4.160156 33.066406-10.230469-1.273437c-4.105468-.507813-7.859375 2.40625-8.367187 6.519531-.511719 4.109375 2.40625 7.855469 6.515625 8.367187l14.84375 1.847657c3.613281.445312 7.097656-.707031 9.554687-3.164063 2.457031-2.460937 3.601563-5.945312 3.148438-9.558594l-4.726563-37.582031c.027344-.355469.308594-1.03125.539063-1.300781l30.097656-23.273438c2.890625-2.230468 4.546875-5.507812 4.546875-8.992187-.003906-3.480469-1.660156-6.757813-4.546875-8.988281zm-238.039063-220.316406c4.578126-4.550782 10.679688-7.054688 17.183594-7.054688 6.5 0 12.601563 2.503906 17.179688 7.054688 4.566406 4.539062 7.082031 10.585937 7.082031 17.023437s-2.515625 12.480469-7.082031 17.019531l-.925782.921875h-65.316406v-3.269531zm-83.59375 328.207031v-213.113281h39.777344v213.113281zm48.082032-278.238281v50.125h-56.386719v-50.125zm-11.367188-34.925782v19.925782h-33.652344v-19.925782zm-114.894531 19c-4.566406-4.539062-7.082031-10.585937-7.082031-17.019531 0-6.4375 2.515625-12.484375 7.082031-17.023437 4.574219-4.550782 10.679687-7.054688 17.179687-7.054688 6.503907 0 12.605469 2.503906 17.183594 7.054688l31.878906 31.695312v3.273438h-65.316406zm-54.796875 15.925782h109.671875v50.125h-35.453125c-1.355469-1.9375-3.601562-3.207032-6.144531-3.207032s-4.789063 1.269532-6.144531 3.207032h-61.929688zm20.460938 65.125h40.113281v19.699218h-14.292969c-6.890625 0-12.5 5.609375-12.5 12.5v64.792969c0 6.894531 5.609375 12.5 12.5 12.5h43.585938c6.894531 0 12.5-5.605469 12.5-12.5v-11.640625c0-4.144531-3.355469-7.5-7.5-7.5-4.140626 0-7.5 3.355469-7.5 7.5v9.140625h-38.585938v-59.792969h11.792969v5.820313c0 4.140625 3.359375 7.5 7.5 7.5 4.144531 0 7.5-3.359375 7.5-7.5v-5.820313h11.792969v14.652344c0 4.140625 3.359374 7.5 7.5 7.5 4.144531 0 7.5-3.359375 7.5-7.5v-17.152344c0-6.890625-5.605469-12.5-12.5-12.5h-14.292969v-19.699218h42.402343v213.113281h-97.515624zm252.328124 30.34375c-3.617187-.449219-7.097656.707031-9.554687 3.164062-2.457031 2.460938-3.605469 5.945312-3.152344 9.558594l4.730469 37.582031c-.03125.355469-.3125 1.03125-.542969 1.300781l-30.097656 23.273438c-2.886719 2.230468-4.546875 5.507812-4.546875 8.988281 0 3.484375 1.65625 6.761719 4.546875 8.992187l30.097656 23.273438c.230469.269531.511719.945312.542969 1.300781l-4.730469 37.582031c-.453125 3.609376.695313 7.09375 3.152344 9.554688s5.9375 3.613281 9.554687 3.164062l12.480469-1.550781v16.585938h-97.515625v-213.113281h33.324219c4.140625 0 7.5-3.355469 7.5-7.5 0-4.140626-3.359375-7.5-7.5-7.5h-25.019531v-50.125h109.671875v50.125h-48.652344c-4.144531 0-7.5 3.359374-7.5 7.5 0 4.144531 3.355469 7.5 7.5 7.5h28.191406v31.898437zm0 0"/><path d="m392.535156 394.019531c-12.316406 0-22.335937 11.5625-22.335937 25.773438 0 14.214843 10.019531 25.777343 22.335937 25.777343s22.339844-11.5625 22.339844-25.777343c-.003906-14.210938-10.023438-25.773438-22.339844-25.773438zm0 36.550781c-3.90625 0-7.335937-5.035156-7.335937-10.777343 0-5.742188 3.429687-10.773438 7.335937-10.773438s7.339844 5.035157 7.339844 10.773438c-.003906 5.742187-3.433594 10.777343-7.339844 10.777343zm0 0"/><path d="m348.582031 375.929688c0-14.214844-10.019531-25.78125-22.335937-25.78125s-22.335938 11.566406-22.335938 25.78125c0 14.214843 10.019532 25.777343 22.335938 25.777343s22.335937-11.5625 22.335937-25.777343zm-22.335937 10.777343c-3.910156 0-7.335938-5.035156-7.335938-10.78125 0-5.742187 3.425782-10.777343 7.335938-10.777343s7.335937 5.039062 7.335937 10.777343c0 5.746094-3.425781 10.78125-7.335937 10.78125zm0 0"/><path d="m338.554688 442.929688c1.039062.496093 2.136718.730468 3.21875.730468 2.804687 0 5.492187-1.578125 6.777343-4.277344l36.46875-76.589843c1.78125-3.742188.191407-8.214844-3.546875-9.996094-3.742187-1.78125-8.214844-.195313-9.996094 3.546875l-36.46875 76.589844c-1.78125 3.738281-.191406 8.214844 3.546876 9.996094zm0 0"/><path d="m127.527344 81.523438-4.34375 25.34375c-1.054688 6.148437 1.425781 12.246093 6.472656 15.914062 2.800781 2.03125 6.105469 3.105469 9.566406 3.105469 2.625 0 5.246094-.644531 7.570313-1.867188l22.753906-11.964843 22.757813 11.960937c2.328124 1.222656 4.945312 1.871094 7.570312 1.871094 3.460938 0 6.769531-1.074219 9.566406-3.109375 5.046875-3.667969 7.527344-9.765625 6.472656-15.914063l-4.34375-25.339843 18.40625-17.945313c4.46875-4.351563 6.046876-10.746094 4.117188-16.683594-1.925781-5.929687-6.957031-10.171875-13.132812-11.074219l-25.441407-3.695312-11.378906-23.054688c-2.761719-5.59375-8.351563-9.070312-14.589844-9.070312s-11.832031 3.476562-14.59375 9.070312l-11.378906 23.054688-25.441406 3.699219c-6.175781.898437-11.207031 5.140625-13.136719 11.074219-1.925781 5.9375-.347656 12.328124 4.117188 16.679687zm-8.261719-29.988282c.148437-.457031.554687-.796875 1.027344-.867187l29.347656-4.265625c2.441406-.351563 4.554687-1.886719 5.644531-4.101563l13.125-26.59375c.210938-.429687.660156-.707031 1.140625-.707031s.929688.277344 1.140625.707031l13.125 26.59375c1.089844 2.214844 3.203125 3.75 5.644532 4.101563l29.34375 4.261718c.476562.070313.882812.410157 1.027343.867188.152344.464844.03125.964844-.320312 1.304688l-21.234375 20.699218c-1.769532 1.722656-2.574219 4.207032-2.15625 6.640625l5.011718 29.222657c.082032.480468-.113281.960937-.507812 1.246093-.277344.199219-.558594.242188-.75.242188-.203125 0-.402344-.046875-.589844-.144531l-26.246094-13.800782c-1.09375-.574218-2.292968-.859375-3.488281-.859375-1.199219 0-2.398437.285157-3.492187.859375l-26.246094 13.800782c-.183594.097656-.382812.144531-.589844.144531-.1875 0-.472656-.042969-.746094-.242188-.398437-.285156-.59375-.765625-.507812-1.246093l5.011719-29.222657c.417969-2.433593-.390625-4.917969-2.15625-6.640625l-21.238281-20.699218c-.347657-.339844-.46875-.839844-.320313-1.300782zm0 0"/><path d="m19.078125 107.792969-3.203125 18.699219c-.925781 5.394531 1.25 10.746093 5.679688 13.960937 2.457031 1.785156 5.355468 2.730469 8.390624 2.730469 2.308594 0 4.605469-.570313 6.644532-1.644532l16.792968-8.824218 16.785157 8.824218c2.042969 1.074219 4.339843 1.644532 6.648437 1.644532 3.035156 0 5.933594-.945313 8.394532-2.730469 4.425781-3.214844 6.601562-8.566406 5.679687-13.960937l-3.207031-18.699219 13.582031-13.238281c3.921875-3.824219 5.304687-9.429688 3.613281-14.640626-1.691406-5.203124-6.109375-8.925781-11.527344-9.714843l-18.769531-2.726563-8.398437-17.011718c-2.421875-4.910157-7.328125-7.960938-12.800782-7.960938-5.476562 0-10.382812 3.050781-12.804687 7.960938l-8.394531 17.011718-18.777344 2.726563c-5.417969.789062-9.832031 4.511719-11.523438 9.71875-1.691406 5.207031-.304687 10.816406 3.613282 14.636719zm19.164063-26.042969c2.441406-.355469 4.554687-1.890625 5.644531-4.105469l9.496093-19.234375 9.492188 19.234375c1.09375 2.214844 3.203125 3.75 5.644531 4.105469l21.226563 3.082031-15.359375 14.972657c-1.765625 1.722656-2.574219 4.207031-2.15625 6.636718l3.625 21.140625-18.984375-9.980469c-1.09375-.574218-2.292969-.859374-3.488282-.859374-1.199218 0-2.398437.285156-3.492187.859374l-18.984375 9.980469 3.625-21.140625c.414062-2.429687-.390625-4.914062-2.160156-6.636718l-15.359375-14.972657zm0 0"/><path d="m253.078125 107.792969-3.203125 18.691406c-.925781 5.394531 1.246094 10.75 5.679688 13.96875 2.457031 1.785156 5.359374 2.730469 8.394531 2.730469 2.304687 0 4.601562-.570313 6.644531-1.644532l16.789062-8.824218 16.789063 8.824218c2.042969 1.074219 4.339844 1.644532 6.644531 1.644532 3.035156 0 5.9375-.945313 8.394532-2.730469 4.429687-3.214844 6.605468-8.566406 5.679687-13.964844l-3.207031-18.695312 13.582031-13.242188c3.921875-3.820312 5.308594-9.429687 3.613281-14.636719-1.6875-5.203124-6.105468-8.929687-11.523437-9.71875l-18.773438-2.726562-8.394531-17.011719c-2.425781-4.910156-7.328125-7.960937-12.804688-7.960937-5.476562 0-10.382812 3.054687-12.800781 7.960937l-8.398437 17.011719-18.773438 2.726562c-5.417968.789063-9.832031 4.515626-11.523437 9.71875-1.691407 5.210938-.308594 10.816407 3.613281 14.636719zm19.164063-26.042969c2.441406-.355469 4.554687-1.890625 5.644531-4.105469l9.496093-19.234375 9.492188 19.234375c1.09375 2.214844 3.203125 3.75 5.644531 4.105469l21.226563 3.082031-15.359375 14.972657c-1.765625 1.722656-2.574219 4.207031-2.15625 6.636718l3.625 21.144532-18.984375-9.984376c-1.089844-.574218-2.289063-.859374-3.488282-.859374-1.199218 0-2.398437.285156-3.492187.859374l-18.984375 9.980469 3.625-21.140625c.417969-2.429687-.390625-4.914062-2.15625-6.636718l-15.359375-14.972657zm0 0"/></svg>