<svg height="512" viewBox="0 0 58 58" width="512" xmlns="http://www.w3.org/2000/svg"><g id="037---Sale" fill="none"><path id="Shape" d="m52 17v22.27l-7 10.73-41-3v-30z" fill="#7d6599"/><path id="Shape" d="m35 30c-.5522847 0-1-.4477153-1-1v-7c0-.5522847.4477153-1 1-1s1 .4477153 1 1v7c0 .5522847-.4477153 1-1 1z" fill="#bdc3c7"/><path id="Shape" d="m44.27 47-5 5h-30.27c-2.76142375 0-5-2.2385763-5-5z" fill="#5d4c72"/><path id="Shape" d="m57.12 44.39-12-12-1.43-1.39-1.62-1.62c-.3285557-.3253069-.7596727-.5267305-1.22-.57l-11.85-1.96c-.5830147-.0456439-1.1567996.1661701-1.5703148.5796852-.4135151.4135152-.6253291.9873001-.5796852 1.5703148l1.92 11.81c.0432695.4603273.2446931.8914443.57 1.22l15.05 15c.5629056.5648636 1.3275456.8823657 2.125.8823657s1.5620944-.3175021 2.125-.8823657l8.48-8.48c1.1175319-1.1615084 1.1175319-2.9984916 0-4.16zm-25.45-12.72c.5710553-.5744633 1.4322224-.7477585 2.1810321-.4388955.7488096.3088629 1.2373825 1.038888 1.2373825 1.8488955s-.4885729 1.5400326-1.2373825 1.8488955c-.7488097.308863-1.6099768.1355678-2.1810321-.4388955-.7754472-.7800749-.7754472-2.0399251 0-2.82z" fill="#e64c3c"/><path id="Shape" d="m31 34c-.34 0-8.32 0-11.45-4.52-1.46-2.08-1.62-4.71-.49-7.82.1984283-.5035862.7615185-.7578837 1.2705156-.5737784.5089971.1841054.7791195.7397776.6094844 1.2537784-.89 2.46-.81 4.48.25 6 2.53 3.66 9.74 3.66 9.81 3.66.5522847 0 1 .4477153 1 1s-.4477153 1-1 1z" fill="#bdc3c7"/><circle id="Oval" cx="40.86" cy="45.81" fill="#fff" r="1.5"/><circle id="Oval" cx="51.46" cy="46.51" fill="#fff" r="1.5"/><path id="Shape" d="m46.51 54.59c-.5522847 0-1-.4477153-1-1v-14.15c0-.5522847.4477153-1 1-1s1 .4477153 1 1v14.15c0 .5522847-.4477153 1-1 1z" fill="#fff"/><g fill="#f29c1f"><path id="Shape" d="m33.79 43.69-1.42 1.41-1.37-1.41 1.41-1.42c.3921222-.3921222 1.0278778-.3921222 1.42 0s.3921222 1.0278778 0 1.42z"/><path id="Shape" d="m35.2 41.86c-.2672459-.0011094-.5229286-.1091444-.71-.3-.3877236-.3900375-.3877236-1.0199625 0-1.41l.71-.71c.3921222-.3921221 1.0278778-.3921221 1.42 0 .3921221.3921222.3921221 1.0278778 0 1.42l-.71.7c-.1870714.1908556-.4427541.2988906-.71.3z"/><path id="Shape" d="m38 39c-.265803.0015368-.5212812-.1028135-.71-.29-.1893127-.1877666-.2957983-.4433625-.2957983-.71s.1064856-.5222334.2957983-.71l.71-.7c.3900375-.3877236 1.0199625-.3877236 1.41 0 .3877236.3900375.3877236 1.0199625 0 1.41l-.7.71c-.1887188.1871865-.444197.2915368-.71.29z"/><path id="Shape" d="m40.86 36.2c-.4062651.0023626-.77358-.2413038-.929371-.6165185-.1557909-.3752147-.0690889-.807391.219371-1.0934815l.71-.7c.3967603-.3397768.9881942-.3169323 1.3575632.0524368.3693691.369369.3922136.9608029.0524368 1.3575632l-.71.71c-.1862606.1847442-.4376601.2888954-.7.29z"/><path id="Shape" d="m45.1 32.37-.71.71c-.2370298.3112658-.6338115.4557138-1.0154767.3696835-.3816651-.0860304-.6781056-.3867362-.7586751-.7695914-.0805695-.3828551.0695318-.7775329.3841518-1.0100921l.71-.71z"/></g><path id="Shape" d="m48.54 1.15c-.3294689-.70172494-1.034779-1.1498501-1.81-1.15h-35.59c-.7102221.00428692-1.36489541.38491093-1.72 1l-9.42 16v2c0 2.209139 1.790861 4 4 4s4-1.790861 4-4c0 2.209139 1.790861 4 4 4s4-1.790861 4-4c0 2.209139 1.790861 4 4 4s4-1.790861 4-4c0 2.209139 1.790861 4 4 4s4-1.790861 4-4c0 2.209139 1.790861 4 4 4s4-1.790861 4-4c0 2.209139 1.790861 4 4 4s4-1.790861 4-4c0 2.209139 1.790861 4 4 4s4-1.790861 4-4v-2z" fill="#e64c3c"/><path id="Shape" d="m20 0-4 17h-8l7-17z" fill="#ecf0f1"/><path id="Shape" d="m32 17h-8l1-17h6z" fill="#ecf0f1"/><path id="Shape" d="m48 17h-8l-4-17h5z" fill="#ecf0f1"/><path id="Shape" d="m8 17v2c0 2.209139-1.790861 4-4 4s-4-1.790861-4-4v-2z" fill="#c03a2b"/><path id="Shape" d="m16 17v2c0 2.209139-1.790861 4-4 4s-4-1.790861-4-4v-2z" fill="#bdc3c7"/><path id="Shape" d="m24 17v2c0 2.209139-1.790861 4-4 4s-4-1.790861-4-4v-2z" fill="#c03a2b"/><path id="Shape" d="m32 17v2c0 2.209139-1.790861 4-4 4s-4-1.790861-4-4v-2z" fill="#bdc3c7"/><path id="Shape" d="m40 17v2c0 2.209139-1.790861 4-4 4s-4-1.790861-4-4v-2z" fill="#c03a2b"/><path id="Shape" d="m48 17v2c0 2.209139-1.790861 4-4 4s-4-1.790861-4-4v-2z" fill="#bdc3c7"/><path id="Shape" d="m56 17v2c0 2.209139-1.790861 4-4 4s-4-1.790861-4-4v-2z" fill="#c03a2b"/></g></svg>